{"title":"[KSHOWNOW] Running Man EP123 720P","uid":7913301,"size":1890925754,"categoryP":"video","categoryS":"hd___tv_shows","magnet":"?xt=urn:btih:3ff3a856432e9f537b0a4638f42f1d67e4380d79&amp;dn=%5BKSHOWNOW%5D+Running+Man+EP123+720P&amp;tr=udp%3A%2F%2Ftracker.openbittorrent.com%3A80&amp;tr=udp%3A%2F%2Fopen.demonii.com%3A1337&amp;tr=udp%3A%2F%2Ftracker.coppersurfer.tk%3A6969&amp;tr=udp%3A%2F%2Fexodus.desync.com%3A6969","seeders":1,"leechers":0,"uploader":"adrianyujs","files":1,"time":1355279276,"description":"This is KSHOWNOW release :)\n\nFormat : AVI\n\nFormat/Info : Audio Video Interleave\n\nFile size : 1.76 GiB\n\nDuration : 1h 33mn\n\nOverall bit rate : 2 693 Kbps\n\nWriting library : VirtualDub build 32842/release\n\n\n\nVideo\n\nID : 0\n\nFormat : AVC\n\nFormat/Info : Advanced Video Codec\n\nFormat profile : &lt;a class=&quot;__cf_email__&quot; href=&quot;/cdn-cgi/l/email-protection&quot; data-cfemail=&quot;420a2b252a020e766c73&quot;&gt;[email&amp;#160;protected]&lt;/a&gt;&lt;script cf-hash='f9e31' type=&quot;text/javascript&quot;&gt;\n/* &lt;![CDATA[ */!function(){try{var t=&quot;currentScript&quot;in document?document.currentScript:function(){for(var t=document.getElementsByTagName(&quot;script&quot;),e=t.length;e--;)if(t[e].getAttribute(&quot;cf-hash&quot;))return t[e]}();if(t&amp;&amp;t.previousSibling){var e,r,n,i,c=t.previousSibling,a=c.getAttribute(&quot;data-cfemail&quot;);if(a){for(e=&quot;&quot;,r=parseInt(a.substr(0,2),16),n=2;a.length-n;n+=2)i=parseInt(a.substr(n,2),16)^r,e+=String.fromCharCode(i);e=document.createTextNode(e),c.parentNode.replaceChild(e,c)}}}catch(u){}}();/* ]]&gt; */&lt;/script&gt;\n\nFormat settings, CABAC : Yes\n\nFormat settings, ReFrames : 4 frames\n\nCodec ID : H264\n\nDuration : 1h 33mn\n\nBit rate : 2 490 Kbps\n\nWidth : 1 280 pixels\n\nHeight : 720 pixels\n\nDisplay aspect ratio : 16:9\n\nFrame rate : 29.970 fps\n\nColor space : YUV\n\nChroma subsampling : 4:2:0\n\nBit depth : 8 bits\n\nScan type : Progressive\n\nBits/(Pixel*Frame) : 0.090\n\nStream size : 1.63 GiB (92%)\n\nWriting library : x264 core 125 r2200bm 999b753\n\n\n\nAudio\n\nID : 1\n\nFormat : MPEG Audio\n\nFormat version : Version 1\n\nFormat profile : Layer 3\n\nMode : Joint stereo\n\nMode extension : MS Stereo\n\nCodec ID : 55\n\nCodec ID/Hint : MP3\n\nDuration : 1h 33mn\n\nBit rate mode : Constant\n\nBit rate : 192 Kbps\n\nChannel(s) : 2 channels\n\nSampling rate : 48.0 KHz\n\nCompression mode : Lossy\n\nStream size : 129 MiB (7%)\n\nAlignment : Split accross interleaves\n\nInterleave, duration : 33 ms (1.00 video frame)\n\nInterleave, preload duration : 500 ms\n\nWriting library : LAME3.99.4","torrent":{"xt":"urn:btih:3ff3a856432e9f537b0a4638f42f1d67e4380d79","amp;dn":"%5BKSHOWNOW%5D+Running+Man+EP123+720P","amp;tr":["udp%3A%2F%2Ftracker.openbittorrent.com%3A80","udp%3A%2F%2Fopen.demonii.com%3A1337","udp%3A%2F%2Ftracker.coppersurfer.tk%3A6969","udp%3A%2F%2Fexodus.desync.com%3A6969"],"infoHash":"3ff3a856432e9f537b0a4638f42f1d67e4380d79","infoHashBuffer":{"type":"Buffer","data":[63,243,168,86,67,46,159,83,123,10,70,56,244,47,29,103,228,56,13,121]},"announce":[],"urlList":[]}}